<mxfile host="app.diagrams.net" modified="2023-06-11T07:34:40.459Z" agent="Mozilla/5.0 (Windows NT 10.0; Win64; x64) AppleWebKit/537.36 (KHTML, like Gecko) Chrome/114.0.0.0 Safari/537.36" etag="Dg2cWL3tX7RVsW2QVlNv" version="21.3.8" type="device">
  <diagram name="Trang-1" id="6IZ8LFksrLAoYG3E0Qy5">
    <mxGraphModel dx="1290" dy="549" grid="1" gridSize="10" guides="1" tooltips="1" connect="1" arrows="1" fold="1" page="1" pageScale="1" pageWidth="827" pageHeight="1169" math="0" shadow="0">
      <root>
        <mxCell id="0" />
        <mxCell id="1" parent="0" />
        <mxCell id="ICS5WdJOlr2gL-axZQF8-3" style="edgeStyle=orthogonalEdgeStyle;rounded=0;orthogonalLoop=1;jettySize=auto;html=1;entryX=0.5;entryY=0;entryDx=0;entryDy=0;" parent="1" source="ICS5WdJOlr2gL-axZQF8-1" target="ICS5WdJOlr2gL-axZQF8-2" edge="1">
          <mxGeometry relative="1" as="geometry" />
        </mxCell>
        <mxCell id="ICS5WdJOlr2gL-axZQF8-1" value="Bắt đầu" style="ellipse;whiteSpace=wrap;html=1;" parent="1" vertex="1">
          <mxGeometry x="340" y="40" width="120" height="80" as="geometry" />
        </mxCell>
        <mxCell id="ICS5WdJOlr2gL-axZQF8-6" style="edgeStyle=orthogonalEdgeStyle;rounded=0;orthogonalLoop=1;jettySize=auto;html=1;entryX=0.5;entryY=0;entryDx=0;entryDy=0;" parent="1" source="ICS5WdJOlr2gL-axZQF8-2" edge="1">
          <mxGeometry relative="1" as="geometry">
            <mxPoint x="400" y="280" as="targetPoint" />
          </mxGeometry>
        </mxCell>
        <mxCell id="ICS5WdJOlr2gL-axZQF8-2" value="AH = 16 bit cao số thứ 1;&lt;br&gt;BX = 16 bit thấp số thứ 1;&lt;br&gt;CX = 16 bit cao số thứ 2;&lt;br&gt;DX = 16 bit thấp số thứ 2;" style="rounded=0;whiteSpace=wrap;html=1;" parent="1" vertex="1">
          <mxGeometry x="320" y="160" width="160" height="80" as="geometry" />
        </mxCell>
        <mxCell id="ICS5WdJOlr2gL-axZQF8-19" style="edgeStyle=orthogonalEdgeStyle;rounded=0;orthogonalLoop=1;jettySize=auto;html=1;entryX=1;entryY=0.5;entryDx=0;entryDy=0;" parent="1" source="ICS5WdJOlr2gL-axZQF8-7" target="ICS5WdJOlr2gL-axZQF8-9" edge="1">
          <mxGeometry relative="1" as="geometry">
            <mxPoint x="580" y="600" as="targetPoint" />
            <Array as="points">
              <mxPoint x="620" y="490" />
            </Array>
          </mxGeometry>
        </mxCell>
        <mxCell id="ICS5WdJOlr2gL-axZQF8-7" value="AX = AX - 1" style="rounded=0;whiteSpace=wrap;html=1;" parent="1" vertex="1">
          <mxGeometry x="560" y="310" width="120" height="60" as="geometry" />
        </mxCell>
        <mxCell id="ICS5WdJOlr2gL-axZQF8-13" style="edgeStyle=orthogonalEdgeStyle;rounded=0;orthogonalLoop=1;jettySize=auto;html=1;entryX=0.5;entryY=0;entryDx=0;entryDy=0;" parent="1" source="ICS5WdJOlr2gL-axZQF8-9" target="ICS5WdJOlr2gL-axZQF8-11" edge="1">
          <mxGeometry relative="1" as="geometry" />
        </mxCell>
        <mxCell id="ICS5WdJOlr2gL-axZQF8-9" value="AX = AX - CX" style="rounded=0;whiteSpace=wrap;html=1;" parent="1" vertex="1">
          <mxGeometry x="340" y="460" width="120" height="60" as="geometry" />
        </mxCell>
        <mxCell id="ICS5WdJOlr2gL-axZQF8-21" style="edgeStyle=orthogonalEdgeStyle;rounded=0;orthogonalLoop=1;jettySize=auto;html=1;entryX=0.5;entryY=0;entryDx=0;entryDy=0;" parent="1" source="ICS5WdJOlr2gL-axZQF8-11" target="ICS5WdJOlr2gL-axZQF8-20" edge="1">
          <mxGeometry relative="1" as="geometry" />
        </mxCell>
        <mxCell id="ICS5WdJOlr2gL-axZQF8-11" value="In ra màn hình AX và BX" style="rounded=0;whiteSpace=wrap;html=1;" parent="1" vertex="1">
          <mxGeometry x="340" y="580" width="120" height="60" as="geometry" />
        </mxCell>
        <mxCell id="ICS5WdJOlr2gL-axZQF8-17" style="edgeStyle=orthogonalEdgeStyle;rounded=0;orthogonalLoop=1;jettySize=auto;html=1;entryX=0.5;entryY=0;entryDx=0;entryDy=0;" parent="1" source="ICS5WdJOlr2gL-axZQF8-15" target="ICS5WdJOlr2gL-axZQF8-9" edge="1">
          <mxGeometry relative="1" as="geometry" />
        </mxCell>
        <mxCell id="ICS5WdJOlr2gL-axZQF8-18" style="edgeStyle=orthogonalEdgeStyle;rounded=0;orthogonalLoop=1;jettySize=auto;html=1;entryX=0;entryY=0.5;entryDx=0;entryDy=0;" parent="1" source="ICS5WdJOlr2gL-axZQF8-15" target="ICS5WdJOlr2gL-axZQF8-7" edge="1">
          <mxGeometry relative="1" as="geometry" />
        </mxCell>
        <mxCell id="ICS5WdJOlr2gL-axZQF8-15" value="BX = BX - DX có nhớ không ?" style="rhombus;whiteSpace=wrap;html=1;" parent="1" vertex="1">
          <mxGeometry x="325" y="280" width="150" height="120" as="geometry" />
        </mxCell>
        <mxCell id="ICS5WdJOlr2gL-axZQF8-20" value="Kết thúc" style="ellipse;whiteSpace=wrap;html=1;" parent="1" vertex="1">
          <mxGeometry x="340" y="680" width="120" height="80" as="geometry" />
        </mxCell>
        <mxCell id="ICS5WdJOlr2gL-axZQF8-24" value="Đúng" style="text;html=1;strokeColor=none;fillColor=none;align=center;verticalAlign=middle;whiteSpace=wrap;rounded=0;" parent="1" vertex="1">
          <mxGeometry x="475" y="310" width="60" height="30" as="geometry" />
        </mxCell>
        <mxCell id="ICS5WdJOlr2gL-axZQF8-25" value="Sai" style="text;html=1;strokeColor=none;fillColor=none;align=center;verticalAlign=middle;whiteSpace=wrap;rounded=0;" parent="1" vertex="1">
          <mxGeometry x="400" y="400" width="60" height="30" as="geometry" />
        </mxCell>
      </root>
    </mxGraphModel>
  </diagram>
</mxfile>
